#!OML:ASF F:\VICON\USERDATA\Patient Classification 1\PLAYGROUND\JustinFriday\JustinFriday.ASF
:FULLY-SPECIFIED
:DEGREES
3850
root 11.3755 23.1631 50.3252 3.47133 -194.262 7.77243
lowerback 27.3509 -5.20993 2.43436
upperback 9.44462 -4.46012 -4.59764
thorax -5.12986 -1.26475 -5.15128
lowerneck -6.40277 -3.01608 -11.1795
upperneck -23.767 3.0887 21.5077
head -6.26771 2.57694 9.04445
rclavicle 5.56597e-014 3.18055e-014
rhumerus 74.7854 -3.8231 -73.3117
rradius 57.5127
rwrist 6.69534
rhand -43.3861 331.762
rfingers 7.12502
rthumb -16.2302 -57.579
lclavicle 5.56597e-014 3.18055e-014
lhumerus 22.3492 -3.47398 61.8657
lradius 61.1548
lwrist -26.6668
lhand -19.2839 -15.3253
lfingers 7.12502
lthumb 7.03112 14.5379
rfemur -55.0754 -17.4868 29.5664
rtibia 103.051
rfoot 9.08291 -26.7269
rtoes 69.0399
lfemur -16.8192 5.75901 -16.4658
ltibia 25.221
lfoot -8.70628 -3.28572
ltoes 12.467
3851
root 11.4048 23.2237 50.302 3.64616 -193.619 8.04903
lowerback 27.2562 -5.3027 2.66901
upperback 9.4371 -4.51862 -4.42237
thorax -5.10347 -1.29714 -5.07416
lowerneck -6.13837 -3.11339 -11.4488
upperneck -24.0381 3.03037 21.6864
head -6.38783 2.55655 9.17922
rclavicle -2.06736e-014 1.74931e-014
rhumerus 75.1043 -4.58328 -73.9436
rradius 55.9232
rwrist 6.58804
rhand -42.5152 330.581
rfingers 7.12502
rthumb -15.3915 -58.8259
lclavicle -2.06736e-014 1.74931e-014
lhumerus 22.0844 -4.23394 61.9001
lradius 61.2804
lwrist -26.3629
lhand -19.9696 -13.6814
lfingers 7.12502
lthumb 6.36917 16.2029
rfemur -56.9753 -17.5249 30.2117
rtibia 103.863
rfoot 8.31262 -25.3363
rtoes 68.662
lfemur -15.8987 5.17278 -16.032
ltibia 23.2287
lfoot -7.9623 -3.47199
ltoes 11.1099
3852
root 11.4413 23.2851 50.2843 3.61176 -193.116 8.20871
lowerback 27.3562 -5.48541 2.62139
upperback 9.49215 -4.74211 -4.34068
thorax -5.10371 -1.39914 -4.8813
lowerneck -6.15335 -3.07294 -11.9478
upperneck -24.0915 3.21894 22.1217
head -6.434 2.68445 9.44326
rclavicle 1.74931e-014 4.13472e-014
rhumerus 75.6091 -4.87833 -74.9535
rradius 54.3338
rwrist 6.6361
rhand -41.7059 329.763
rfingers 7.12502
rthumb -14.6118 -59.702
lclavicle 1.74931e-014 4.13472e-014
lhumerus 21.8595 -4.15454 62.0135
lradius 61.2056
lwrist -26.3521
lhand -19.9338 -13.2386
lfingers 7.12502
lthumb 6.40368 16.6446
rfemur -58.6111 -17.3719 30.8177
rtibia 104.422
rfoot 8.29422 -22.9893
rtoes 68.0688
lfemur -14.8774 4.81928 -15.6878
ltibia 21.375
lfoot -7.09054 -3.65828
ltoes 9.70242
3853
root 11.4824 23.3516 50.2636 3.40714 -192.821 8.19905
lowerback 27.5949 -5.63299 2.2411
upperback 9.55921 -4.99535 -4.3217
thorax -5.13537 -1.51244 -4.55309
lowerneck -6.40474 -2.9238 -12.0945
upperneck -23.7823 3.32741 21.9794
head -6.31411 2.75272 9.40078
rclavicle -3.18055e-014 -1.59028e-015
rhumerus 76.1868 -4.92149 -75.8875
rradius 52.6289
rwrist 6.50085
rhand -41.1508 329.073
rfingers 7.12502
rthumb -14.0769 -60.4298
lclavicle -3.18055e-014 -1.59028e-015
lhumerus 21.6226 -3.0244 62.4406
lradius 60.5349
lwrist -27.3075
lhand -19.9951 -16.9632
lfingers 7.12502
lthumb 6.34453 12.9218
rfemur -59.9077 -17.0239 31.0754
rtibia 104.9
rfoot 7.26316 -20.3376
rtoes 67.2385
lfemur -13.7077 4.74527 -15.5395
ltibia 19.5592
lfoot -6.07689 -3.84507
ltoes 9.38558
3854
root 11.5151 23.4137 50.2375 3.1572 -192.428 8.14032
lowerback 27.8528 -5.69708 1.9508
upperback 9.62914 -5.10753 -4.28174
thorax -5.16149 -1.55257 -4.29896
lowerneck -6.34662 -2.86363 -11.97
upperneck -23.7417 3.27735 21.5788
head -6.30652 2.71521 9.22302
rclavicle 9.54166e-014 -3.81667e-014
rhumerus 76.5814 -5.35307 -76.5582
rradius 50.9365
rwrist 6.39493
rhand -40.3515 328.118
rfingers 7.12502
rthumb -13.3066 -61.4369
lclavicle 9.54166e-014 -3.81667e-014
lhumerus 21.3814 -2.96499 62.7213
lradius 60.4342
lwrist -27.4477
lhand -20.2196 -17.3774
lfingers 7.12502
lthumb 6.12783 12.5139
rfemur -61.1075 -17.0571 31.1344
rtibia 105.342
rfoot 5.51926 -19.0071
rtoes 66.6063
lfemur -12.5047 4.56493 -15.4934
ltibia 17.8209
lfoot -4.25423 -3.82181
ltoes 11.1862
3855
root 11.5451 23.4684 50.2118 2.97358 -192.037 8.18488
lowerback 28.0333 -5.73312 1.83043
upperback 9.6986 -5.14413 -4.23928
thorax -5.15791 -1.55603 -4.16679
lowerneck -6.03927 -2.87046 -12.0192
upperneck -23.9548 3.29805 21.6407
head -6.43319 2.71266 9.2665
rclavicle 1.30403e-013 1.17681e-013
rhumerus 76.9245 -5.92404 -77.2436
rradius 49.2164
rwrist 6.20674
rhand -39.5408 327.569
rfingers 7.12502
rthumb -12.5251 -62.0357
lclavicle 1.30403e-013 1.17681e-013
lhumerus 20.9961 -3.2689 62.8199
lradius 60.6387
lwrist -27.1874
lhand -20.7261 -17.4893
lfingers 7.12502
lthumb 5.63876 12.4157
rfemur -62.3369 -16.8966 31.0156
rtibia 105.796
rfoot 2.99836 -18.5761
rtoes 66.3521
lfemur -11.1686 4.22777 -15.3346
ltibia 15.7483
lfoot -2.08373 -3.27815
ltoes 16.2826
3856
root 11.5785 23.5065 50.1845 3.01422 -191.547 8.28525
lowerback 28.0128 -5.80469 1.82224
upperback 9.7209 -5.22619 -4.16615
thorax -5.123 -1.59353 -4.05513
lowerneck -5.82776 -2.93988 -12.1342
upperneck -24.1391 3.28446 21.8888
head -6.52488 2.70269 9.3937
rclavicle -1.59028e-015 3.02153e-014
rhumerus 77.2961 -6.41834 -77.9112
rradius 47.4503
rwrist 5.76653
rhand -39.0246 327.265
rfingers 7.12502
rthumb -12.0274 -62.3697
lclavicle -1.59028e-015 3.02153e-014
lhumerus 20.4862 -3.50546 62.9283
lradius 61.064
lwrist -27.1508
lhand -21.0589 -17.4692
lfingers 7.12502
lthumb 5.31747 12.4441
rfemur -63.7502 -16.2681 30.984
rtibia 106.183
rfoot 0.913754 -17.6321
rtoes 65.8798
lfemur -10.0957 3.79625 -15.1074
ltibia 13.6164
lfoot -0.707824 -2.9695
ltoes 16.1392
3857
root 11.6121 23.5846 50.1576 2.92145 -191.08 8.26112
lowerback 28.1244 -5.87887 1.64538
upperback 9.78512 -5.33311 -4.09582
thorax -5.08998 -1.63536 -3.83864
lowerneck -6.03277 -3.00338 -12.2899
upperneck -23.9572 3.18296 21.9755
head -6.4082 2.67184 9.44976
rclavicle 2.22639e-014 6.20208e-014
rhumerus 77.7133 -6.817 -78.5447
rradius 45.7886
rwrist 5.29733
rhand -38.3382 326.621
rfingers 7.12502
rthumb -11.3655 -63.051
lclavicle 2.22639e-014 6.20208e-014
lhumerus 20.1137 -3.53871 63.1336
lradius 61.3195
lwrist -27.3256
lhand -21.3129 -17.5682
lfingers 7.12502
lthumb 5.07221 12.3511
rfemur -64.6258 -16.1906 31.2649
rtibia 105.869
rfoot 0.302633 -16.7423
rtoes 65.0737
lfemur -8.76137 3.6107 -15.0234
ltibia 11.2208
lfoot -0.069787 -3.55734
ltoes 11.0207
3858
root 11.6482 23.6241 50.1306 2.53686 -190.826 8.09581
lowerback 28.4926 -5.90465 1.18492
upperback 9.92928 -5.41286 -4.09501
thorax -5.06418 -1.6475 -3.53942
lowerneck -6.15291 -3.00013 -12.4705
upperneck -23.8506 3.18433 22.0468
head -6.35219 2.68919 9.50726
rclavicle 7.79236e-014 -5.88403e-014
rhumerus 78.2307 -7.14167 -79.182
rradius 44.1688
rwrist 4.89251
rhand -37.2469 326.116
rfingers 7.12502
rthumb -10.3128 -63.6107
lclavicle 7.79236e-014 -5.88403e-014
lhumerus 19.8689 -3.43782 63.2062
lradius 61.4391
lwrist -27.4005
lhand -21.4368 -17.885
lfingers 7.12502
lthumb 4.95261 12.0372
rfemur -65.3818 -15.8718 31.2123
rtibia 105.671
rfoot -0.691335 -16.3187
rtoes 64.4244
lfemur -6.95243 3.42502 -15.0901
ltibia 8.60903
lfoot 0.666817 -3.88098
ltoes 9.03279
3859
root 11.6798 23.6749 50.1068 2.31848 -190.441 7.96379
lowerback 28.7466 -5.93203 0.824876
upperback 10.0038 -5.49562 -4.06403
thorax -5.06716 -1.6724 -3.26542
lowerneck -5.9006 -2.95158 -12.6811
upperneck -24.2368 3.40688 22.268
head -6.56459 2.81467 9.6505
rclavicle -4.77083e-015 4.29375e-014
rhumerus 78.6024 -7.56378 -79.5037
rradius 42.5333
rwrist 4.3338
rhand -36.5878 326.066
rfingers 7.12502
rthumb -9.67697 -63.6921
lclavicle -4.77083e-015 4.29375e-014
lhumerus 19.7564 -3.37526 63.3864
lradius 61.4504
lwrist -27.5757
lhand -21.4853 -18.4119
lfingers 7.12502
lthumb 4.90572 11.5114
rfemur -66.2091 -15.6032 31.1069
rtibia 105.339
rfoot -2.20526 -15.8338
rtoes 63.6963
lfemur -4.73621 3.12259 -15.1159
ltibia 4.73722
lfoot 3.97837 -2.88914
ltoes 13.9072
3860
root 11.7137 23.7222 50.0793 2.34156 -189.978 8.1297
lowerback 28.7988 -6.02772 0.815319
upperback 10.0121 -5.60809 -3.94148
thorax -5.07612 -1.72698 -3.08522
lowerneck -5.69553 -2.86007 -12.9815
upperneck -24.5134 3.63792 22.4091
head -6.73886 2.94957 9.77601
rclavicle -8.5875e-014 -1.90833e-014
rhumerus 78.7388 -7.88468 -79.4903
rradius 41.0163
rwrist 3.54728
rhand -36.4729 325.892
rfingers 7.12502
rthumb -9.56606 -63.871
lclavicle -8.5875e-014 -1.90833e-014
lhumerus 19.5742 -3.37159 63.5262
lradius 61.4201
lwrist -27.6142
lhand -21.4102 -18.809
lfingers 7.12502
lthumb 4.97832 11.1125
rfemur -67.0224 -15.3643 31.4916
rtibia 104.823
rfoot -3.46477 -15.5251
rtoes 62.6907
lfemur -2.32528 2.77217 -14.792
ltibia -8.74653e-015
lfoot 5.94489 -3.65643
ltoes 9.86114
